<svg version="1.1" xmlns="http://www.w3.org/2000/svg" xmlns:xlink="http://www.w3.org/1999/xlink" width="159.62075" height="162.81871" viewBox="0,0,159.62075,162.81871"><g transform="translate(-159.13337,-77.91823)"><g data-paper-data="{&quot;isPaintingLayer&quot;:true}" fill-rule="nonzero" stroke="none" stroke-width="1" stroke-linecap="butt" stroke-linejoin="miter" stroke-miterlimit="10" stroke-dasharray="" stroke-dashoffset="0" style="mix-blend-mode: normal"><path d="M316.43298,181.29636c1.41878,3.04169 0.32094,5.94964 -0.51962,8.85351c-0.12319,0.42565 -0.55872,0.83723 -0.95433,1.09437c-1.64761,1.07087 -3.33524,2.08018 -5.20754,3.2102c-3.39806,1.06282 -5.61373,3.46523 -7.98275,5.58004c-2.7196,2.42776 -5.13285,5.25511 -9.08243,5.67353c-1.79974,0.19064 -3.60215,0.51416 -5.40254,0.50868c-4.13529,-0.01262 -8.27122,-0.15892 -12.40478,-0.30859c-5.22415,-0.18912 -10.44492,-0.47619 -15.66959,-0.64553c-5.07506,-0.1645 -10.15269,-0.28018 -15.2301,-0.33547c-12.7217,-0.13857 -25.4441,-0.2144 -38.1658,-0.35286c-3.3047,-0.03596 -6.61191,-0.14186 -9.91082,-0.3365c-4.54095,-0.26793 -9.07567,-0.64344 -13.61192,-0.98792c-1.90692,-0.1448 -3.39167,-2.07349 -3.10913,-3.87937c0.18578,-1.18741 0.2064,-2.39973 0.33536,-3.59721c0.2043,-1.89696 0.66539,-3.79627 0.61996,-5.68505c-0.23228,-9.6574 0.38456,-19.27667 1.01012,-28.90171c0.17928,-2.75837 -0.15748,-5.55407 0.07806,-8.30392c0.24932,-2.91079 0.83162,-5.80047 1.39494,-8.67458c0.43713,-2.23026 1.06875,-4.42239 1.75044,-6.59188c1.79696,0.2042 3.4574,0.36881 5.0641,0.63407c-0.44957,0.87353 -1.2148,1.66653 -1.17403,2.41565c0.13929,2.55808 0.28677,5.17612 0.95789,7.62703c0.61189,2.23457 2.27187,3.95301 4.71877,4.42998c4.05226,0.78991 8.11194,1.57511 12.19948,2.13682c2.08848,0.287 4.10797,-0.19089 5.26146,-2.46605c1.49472,0.00557 2.84897,-0.17667 4.14188,0.02819c4.25995,0.67496 8.50706,-4.75608 7.43689,-9.00932c-0.13339,-0.53012 -0.19876,-1.08316 -0.2396,-1.62977c-0.20295,-2.71706 -1.43473,-4.37991 -4.11462,-4.87902c-2.26343,-0.42154 -4.59836,-0.45926 -7.01526,-0.70828c-1.51694,-0.61421 -2.87432,-1.43947 -4.33355,-1.70495c-2.67817,-0.48722 -5.41637,-0.6445 -8.13132,-1.07951c0.95577,-2.644 0.43815,-4.99335 -0.72318,-7.41188c-0.03761,-1.37257 0.84185,-1.20894 1.60895,-1.20409c7.34304,0.04649 14.64676,0.43187 21.81735,2.22879c1.13956,0.28556 2.38024,0.16761 3.69829,0.28489c1.00397,0.30214 1.86919,0.66269 2.76692,0.78546c1.57189,0.21498 3.17696,0.19725 4.74383,0.43632c1.92382,0.29354 3.81182,0.58652 5.71286,-0.31013c2.87735,1.49868 5.84151,1.23503 8.83685,1.11255c4.13331,-0.16901 8.31368,-0.47519 12.40573,-0.05647c5.80279,0.59375 11.53456,1.85613 17.31759,2.6874c1.27308,0.183 1.99984,0.63588 2.05108,1.82027c0.11563,2.67185 0.10192,5.3493 -0.00634,8.01425c-3.39265,-0.11189 -6.63807,-0.21355 -10.01018,-0.34511c-1.14553,-0.68125 -2.08799,-1.55572 -3.19957,-1.93622c-2.12786,-0.72839 -4.33582,-1.25266 -6.54154,-1.71327c-1.48621,-0.31036 -2.93932,0.86192 -2.93832,2.43749c0.00272,4.34216 -2.52385,7.92405 -3.47934,11.98172c-0.4527,1.92237 0.30801,3.65455 2.30684,3.88608c3.69275,0.42775 7.38067,0.8971 11.14826,1.42638c1.11521,1.64029 2.69795,2.19272 4.44741,2.45887c2.02115,0.30749 4.03431,0.67003 6.05871,0.95302c2.45469,0.34313 4.99343,0.5381 6.90101,-1.37841c3.20681,-3.22179 5.73924,-6.81032 4.8718,-11.79242c1.716,0.13004 3.28357,0.28203 4.75509,0.42473c0.1641,1.79306 0.3604,3.43348 0.43345,5.07936c0.01902,0.42802 -0.25876,0.94687 -0.55206,1.29669c-0.91495,1.09138 -1.26069,2.237 -0.40489,3.47307c0.91531,1.32207 2.29067,1.4331 3.71655,1.1336c1.3646,-0.28664 2.3983,-1.12548 2.50765,-2.52375c0.12707,-1.62437 -0.08488,-3.27361 -0.11802,-4.9127c-0.02642,-1.30699 -0.00534,-2.61496 -0.00534,-3.89964c4.54188,-0.57867 5.01889,-0.07403 4.7143,4.36993c-0.09736,1.42035 0.03366,2.87714 0.2501,4.28814c0.08801,0.57364 0.5768,1.35427 1.06966,1.53639c0.8006,0.29589 2.07222,0.55878 2.57037,0.14454c0.77443,-0.644 1.44978,-1.85197 1.49073,-2.8487c0.11728,-2.85324 -0.14662,-5.72022 -0.16438,-8.5824c-0.0041,-0.6622 0.37583,-1.32677 0.57905,-1.99025c0.17173,0.03201 0.34348,0.06401 0.51522,0.09602c0.20094,1.53704 0.47105,3.05233 2.25643,3.47696c1.54593,0.36769 2.48951,-0.55212 3.39273,-1.57453c0.1572,2.47795 0.13926,4.84896 0.29328,7.20876c0.53872,8.25467 0.43453,16.49351 -0.33421,24.73112c-0.07845,0.84042 0.34117,1.7273 0.52966,2.59263M215.98207,201.59131c3.86871,0.12008 7.73673,0.30075 11.60629,0.34499c4.87487,0.05572 9.75102,-0.0054 14.62661,-0.00647c8.86473,-0.00199 17.72953,0.01682 26.5942,-0.00301c2.6934,-0.00603 3.94737,-1.25391 4.1428,-3.91807c0.05235,-0.71351 0.25265,-1.41732 0.28975,-2.13052c0.05338,-1.02724 0.62118,-1.34718 1.5365,-1.25942c1.7581,0.16857 3.53039,0.2588 5.26884,0.549c4.73216,0.78985 7.22431,-0.98013 8.24419,-5.64076c0.86746,-3.96397 -0.222,-7.31744 -2.22024,-10.71672c-1.65914,-2.82242 -3.74264,-4.68214 -6.91161,-5.46308c-2.02257,-0.49844 -3.99818,-1.19764 -5.97718,-1.85962c-2.06531,-0.69084 -5.01341,0.99804 -5.25004,3.03897c-0.32285,2.78469 -0.62124,5.57379 -1.04297,8.3438c-0.0627,0.41189 -0.68228,0.8925 -1.14683,1.06491c-3.13216,1.16249 -6.3348,1.16921 -9.63781,0.76371c-3.11803,-0.3828 -6.28769,-0.35264 -9.4355,-0.48389c-4.4169,-0.18419 -8.83356,-0.38766 -13.25241,-0.50408c-1.70725,-0.04496 -3.42614,0.05927 -5.12933,0.21165c-3.77977,0.33823 -7.56171,0.68021 -11.32628,1.15214c-3.44091,0.43134 -6.86,1.03657 -10.28896,1.56348c-1.26734,0.19476 -1.65766,-0.39004 -1.58053,-1.60547c0.09105,-1.43514 0.04569,-2.87978 0.03714,-4.32018c-0.01513,-2.54624 -0.82453,-3.87943 -3.28299,-4.23208c-2.85664,-0.40975 -5.78133,-0.33811 -8.67532,-0.49651c-1.94709,-0.10655 -3.26231,0.87169 -3.75804,2.61453c-0.37784,1.32829 -0.21371,2.80214 -0.38229,4.20016c-0.58349,4.83831 2.60783,7.16248 6.29912,6.87451c2.09625,-0.16351 4.2328,0.18965 6.71607,0.33086c-0.96507,1.85161 -1.79516,3.3268 -2.516,4.85353c-1.22431,2.59316 -0.26108,4.65119 2.47014,5.38146c0.58517,0.15645 1.18675,0.2866 1.78863,0.33975c3.95791,0.34939 7.91796,0.67437 12.19404,1.01241z" fill="#dfb534"/><path d="M184.23399,137.57652c-0.54518,2.20908 -1.17679,4.40121 -1.61392,6.63147c-0.56331,2.87411 -1.14561,5.76379 -1.39494,8.67458c-0.23554,2.74984 0.10122,5.54555 -0.07806,8.30392c-0.62556,9.62504 -1.2424,19.24432 -1.01012,28.90171c0.04543,1.88878 -0.41566,3.78809 -0.61996,5.68505c-0.12896,1.19747 -0.14959,2.4098 -0.33536,3.59721c-0.28254,1.80588 1.20221,3.73457 3.10913,3.87937c4.53626,0.34447 9.07097,0.71998 13.61192,0.98792c3.29891,0.19464 6.60612,0.30054 9.91082,0.3365c12.7217,0.13845 25.4441,0.21429 38.1658,0.35286c5.07741,0.0553 10.15504,0.17097 15.2301,0.33547c5.22467,0.16934 10.44545,0.45641 15.66959,0.64553c4.13356,0.14968 8.26949,0.29597 12.40478,0.30859c1.80039,0.00548 3.6028,-0.31803 5.40254,-0.50868c3.94958,-0.41842 6.36283,-3.24577 9.08243,-5.67353c2.36901,-2.11481 4.58468,-4.51722 7.90645,-5.50065c-0.30901,1.67726 -0.59942,3.42744 -1.22062,5.05104c-0.44903,1.17361 -1.15523,2.37409 -2.06391,3.22315c-2.74413,2.56411 -5.64808,4.95679 -8.47848,7.42921c-0.86596,0.75643 -1.75657,1.49838 -2.53228,2.34221c-6.49842,7.06923 -14.45903,12.09231 -22.86182,16.53603c-3.44279,1.82068 -6.67545,4.04917 -10.15882,5.77996c-4.25392,2.1137 -8.74475,3.67769 -13.50609,4.25279c-1.62188,0.19588 -3.2622,0.32151 -4.89492,0.3308c-6.47991,0.03695 -12.96576,-0.15041 -19.43846,0.06871c-4.98926,0.16889 -9.95588,0.96362 -14.94563,1.18292c-1.81138,0.07962 -3.68374,-0.61655 -5.48843,-1.10571c-6.58007,-1.78355 -13.1376,-3.65031 -19.71787,-5.43306c-1.27832,-0.34631 -2.19312,-0.85319 -2.91316,-2.10106c-2.5328,-4.38951 -5.32966,-8.62673 -7.86036,-13.01741c-2.30982,-4.00741 -4.79242,-7.98544 -6.48325,-12.25953c-1.65557,-4.18499 -2.34397,-8.74549 -3.58359,-13.10513c-0.62312,-2.19144 -1.53326,-4.30081 -2.30352,-6.45094c-1.28018,-3.57353 -2.58525,-7.26069 -1.90329,-11.03994c0.73504,-4.07334 1.00301,-8.12358 0.88027,-12.21867c-0.05328,-1.77749 -0.40479,-3.54709 -0.63901,-5.31787c-0.36633,-2.76936 0.58363,-5.3389 1.188,-7.96127c0.02429,-0.10541 0.14049,-0.20857 0.12773,-0.30087c-0.63633,-4.60438 3.00353,-7.89187 3.71111,-12.1019c0.81189,-4.83071 4.50068,-7.83646 7.50343,-11.2616c2.12457,-2.42346 4.16698,-4.92096 6.34408,-7.29555c1.17835,-1.28525 2.56216,-2.38211 3.96344,-3.43049c0.04483,1.49936 -0.23795,2.89933 -0.03079,4.22258c0.2597,1.65881 0.52352,3.21795 -0.06538,4.87653c-0.20102,0.56611 0.19153,1.34299 0.36013,2.14436c-0.07648,1.41982 -0.15559,2.725 -0.33373,4.01654c-0.31885,2.31168 -0.54773,4.56778 1.90402,5.98688z" fill="#ffffff"/><path d="M182.61645,127.45232c-0.12136,-0.68058 -0.5139,-1.45746 -0.31288,-2.02358c0.58891,-1.65858 0.32509,-3.21772 0.06538,-4.87653c-0.20717,-1.32325 0.07561,-2.72321 0.14491,-4.22551c0.55582,-2.07516 0.99102,-4.05861 1.70915,-5.93367c0.35388,-0.92403 1.06789,-2.05191 1.90106,-2.38781c2.71829,-1.09595 5.56643,-1.86988 8.62922,-2.77943c1.14871,-0.27904 2.09637,-0.42187 2.90588,-0.83523c3.41819,-1.74546 6.92752,-3.13728 10.80502,-3.45388c0.74656,-0.06095 1.48576,-0.3861 2.19778,-0.66689c3.51515,-1.38624 7.06197,-2.57704 10.92342,-2.47344c0.86797,0.02329 1.73942,-0.30533 2.61717,-0.38725c4.38672,-0.4095 8.77607,-0.79079 13.10471,-1.08167c-0.4803,1.09463 -0.84275,2.11862 -1.33284,3.07735c-1.18319,2.31462 0.42059,5.26336 3.02302,5.42759c1.04352,0.06584 2.09519,0.03904 3.14188,0.00933c1.68186,-0.04775 3.03297,-0.99286 3.32538,-2.65877c0.36593,-2.08465 0.79652,-4.2809 -0.9783,-6.01494c5.19789,0.42676 10.28023,0.65552 15.28167,1.41612c7.73696,1.17664 15.41102,2.76112 23.12751,4.08052c3.09523,0.52923 6.23069,1.1268 9.35043,1.1414c5.45383,0.02554 10.62662,0.98189 15.54958,3.31127c2.09533,0.67713 4.17376,1.41434 6.29187,2.01064c1.45952,0.4109 2.33427,1.21223 2.39389,2.74962c0.12808,3.30263 0.18785,6.60827 0.34789,9.90919c0.18397,3.79443 0.44615,7.58507 0.67516,11.67613c-0.24119,3.23143 -0.42489,6.1705 -0.7473,9.09429c-0.18867,1.71082 -0.5987,3.39724 -0.90915,5.09464c-0.80692,1.13449 -1.7505,2.0543 -3.29642,1.68661c-1.78537,-0.42463 -2.05549,-1.93992 -2.25643,-3.47696c-0.17173,-0.03201 -0.34348,-0.06401 -0.51522,-0.09602c-0.20322,0.66348 -0.58315,1.32805 -0.57905,1.99025c0.01776,2.86218 0.28166,5.72916 0.16438,8.5824c-0.04095,0.99674 -0.71631,2.2047 -1.49073,2.8487c-0.49815,0.41424 -1.76977,0.15135 -2.57037,-0.14454c-0.49286,-0.18212 -0.98165,-0.96274 -1.06966,-1.53639c-0.21643,-1.411 -0.34746,-2.86778 -0.2501,-4.28814c0.30458,-4.44396 -0.17242,-4.9486 -4.7143,-4.36993c0,1.28468 -0.02108,2.59265 0.00534,3.89964c0.03314,1.63909 0.24509,3.28832 0.11802,4.9127c-0.10935,1.39827 -1.14305,2.23711 -2.50765,2.52375c-1.42588,0.2995 -2.80124,0.18847 -3.71655,-1.1336c-0.8558,-1.23607 -0.51006,-2.3817 0.40489,-3.47307c0.2933,-0.34983 0.57108,-0.86867 0.55206,-1.29669c-0.07306,-1.64588 -0.26935,-3.2863 -0.43345,-5.07936c-1.47152,-0.1427 -3.0391,-0.29469 -4.89992,-0.44727c-1.16933,-0.00751 -2.06333,0.09695 -2.91834,-0.04075c-3.67426,-0.59176 -6.6732,-1.8679 -6.35474,-5.90461c-0.03892,-2.67516 -0.02522,-5.35262 -0.14084,-8.02447c-0.05124,-1.18438 -0.778,-1.63727 -2.05108,-1.82027c-5.78303,-0.83127 -11.51479,-2.09365 -17.31759,-2.6874c-4.09205,-0.41871 -8.27242,-0.11254 -12.40573,0.05647c-2.99534,0.12248 -5.9595,0.38612 -8.77498,-1.2259c0.16148,-1.31516 0.6578,-2.49126 0.45763,-3.53364c-0.37327,-1.94376 0.19403,-3.58087 0.94877,-5.25138c0.20459,-0.45282 0.41631,-0.91316 0.53472,-1.39232c0.52686,-2.13174 0.51663,-4.12141 -1.25654,-5.80484c-1.90972,-1.81302 -7.89981,-2.98218 -10.50554,-1.94066c-2.80004,1.11919 -3.90892,3.23126 -3.68565,6.22137c0.17799,2.38356 1.15228,4.71337 0.34892,7.19848c-0.36462,1.12794 -0.18475,2.43192 -0.25189,3.65602c-1.19393,-0.0686 -2.43462,0.04935 -3.57418,-0.23621c-7.17059,-1.79692 -14.47431,-2.18229 -21.81735,-2.22879c-0.7671,-0.00485 -1.64657,-0.16849 -1.72117,1.17869c-1.40323,-0.32644 -2.65366,-0.819 -3.9386,-1.193c-1.42479,-0.41472 -2.87926,-0.7289 -4.32422,-1.07249c-1.43014,-0.34006 -2.64925,-0.30396 -3.91544,0.83083c-1.11955,1.00338 -3.0117,1.10253 -3.51249,2.91333M262.92231,108.93681c0.65301,0.561 1.22229,1.30797 1.97525,1.64706c2.01067,0.90549 4.09201,1.65794 6.16094,2.42914c1.92829,0.71877 3.92463,0.81497 5.42877,-0.72317c1.44369,-1.47631 2.7324,-3.17043 3.77576,-4.95237c0.93934,-1.60424 0.17119,-3.22601 -1.60447,-3.82735c-2.40006,-0.81283 -4.81136,-1.89046 -7.28423,-2.1113c-2.79917,-0.24999 -5.71101,0.10622 -8.49885,0.61222c-1.90717,0.34616 -2.34505,2.38245 -1.31127,3.95021c0.54616,0.82825 0.82457,1.83304 1.3581,2.97556M301.37676,135.1006c3.16456,0.40118 4.2217,-0.15812 5.31641,-2.69656c0.65667,-1.52272 1.37679,-3.01928 2.10607,-4.50917c1.47832,-3.02008 0.70691,-5.08901 -2.51749,-5.93915c-1.55948,-0.41116 -3.3718,-0.64614 -4.8699,-0.2343c-1.01078,0.27786 -1.67058,1.82693 -2.49201,2.80345c-0.17788,0.21144 -0.45362,0.37422 -0.55178,0.61372c-0.73901,1.80343 -1.67379,3.56898 -2.09594,5.4478c-0.41237,1.83532 0.756,3.1637 2.42447,3.89162c0.74624,0.32557 1.594,0.41834 2.68017,0.62261M216.548,109.18004c0.47463,-0.46497 0.95463,-0.9246 1.42289,-1.39589c1.46204,-1.47147 1.95913,-4.10206 1.07061,-5.63627c-0.78145,-1.34932 -2.73863,-2.01024 -4.91076,-1.44374c-2.12869,0.55518 -4.27381,1.15364 -6.27345,2.04376c-0.77292,0.34405 -1.47373,1.4786 -1.65683,2.36655c-0.25182,1.2212 2.1778,4.23439 3.37296,4.72146c2.3548,0.95967 4.62177,1.01199 6.97458,-0.65588M290.96923,128.74257c-2.6537,-0.78477 -5.36609,0.99943 -5.76113,3.96675c-0.23813,1.78889 -0.43043,3.66409 -0.15063,5.42207c0.37705,2.3688 2.77685,2.13368 4.45372,2.78311c2.77727,1.0756 4.9797,-0.3799 5.0202,-3.40743c0.04417,-3.303 -1.64132,-5.96715 -3.56216,-8.7645z" fill="#83440d"/><path d="M307.808,105.99299c-4.93536,-2.20511 -10.10817,-3.16146 -15.562,-3.18699c-3.11973,-0.0146 -6.2552,-0.61216 -9.35043,-1.1414c-7.71649,-1.3194 -15.39055,-2.90388 -23.12751,-4.08052c-5.00143,-0.76059 -10.08378,-0.98936 -15.41689,-1.44908c-2.51937,0.03561 -4.75177,0.06385 -6.98413,0.09209c-4.38842,0.39121 -8.77777,0.7725 -13.16449,1.182c-0.87775,0.08192 -1.74919,0.41054 -2.61716,0.38725c-3.86145,-0.1036 -7.40827,1.0872 -10.92342,2.47344c-0.71202,0.28079 -1.45122,0.60595 -2.19778,0.66689c-3.87751,0.3166 -7.38683,1.70843 -10.80502,3.45388c-0.80951,0.41336 -1.75716,0.5562 -2.77988,0.8088c4.27833,-3.24707 8.60318,-6.61604 13.13797,-9.67366c4.589,-3.09417 9.10787,-6.32179 14.50325,-8.07614c2.91421,-0.94757 5.52354,-2.82633 8.4335,-3.79516c3.27966,-1.09192 6.72122,-1.74849 10.1319,-2.38157c3.46537,-0.64324 7.01529,-0.5919 10.35387,-2.17793c1.67377,-0.79515 3.81365,-0.72463 5.75377,-0.81952c4.06904,-0.19902 8.15731,-0.49005 12.21529,-0.28978c3.87374,0.19118 7.72466,0.92001 11.5751,1.48438c2.86604,0.42007 5.77371,0.74592 8.54881,1.52165c1.51736,0.42414 3.06241,1.45555 4.13162,2.63362c2.43218,2.67985 4.68912,5.53947 6.80639,8.478c1.77582,2.46465 3.37047,5.08057 4.82269,7.75061c1.03384,1.9008 1.69792,4.0027 2.51454,6.13915z" fill="#fffefe"/><path d="M315.94425,146.76385c0.21414,-1.80947 0.62417,-3.49589 0.81284,-5.20672c0.3224,-2.92379 0.5061,-5.86286 0.7564,-8.95107c0.4395,1.23503 1.25518,2.62969 1.24043,4.01552c-0.10732,10.08192 -0.73234,20.17179 -0.45349,30.23863c0.1365,4.92819 -1.1048,9.46231 -1.84647,14.29938c-0.20947,-0.72857 -0.62909,-1.61545 -0.55064,-2.45587c0.76875,-8.23761 0.87293,-16.47645 0.33421,-24.73112c-0.15402,-2.3598 -0.13608,-4.73081 -0.29328,-7.20876z" fill="#fffefe"/><path d="M215.8237,201.58878c-4.11772,-0.33551 -8.07776,-0.66049 -12.03567,-1.00988c-0.60189,-0.05315 -1.20346,-0.1833 -1.78863,-0.33975c-2.73122,-0.73027 -3.69445,-2.7883 -2.47014,-5.38146c0.72083,-1.52673 1.55093,-3.00192 2.516,-4.85353c-2.48327,-0.14121 -4.61982,-0.49438 -6.71607,-0.33086c-3.69128,0.28797 -6.88261,-2.0362 -6.29911,-6.87451c0.16859,-1.39802 0.00446,-2.87187 0.38229,-4.20016c0.49572,-1.74284 1.81095,-2.72108 3.75804,-2.61453c2.89399,0.1584 5.81869,0.08675 8.67532,0.49651c2.45846,0.35265 3.26786,1.68584 3.28299,4.23208c0.00856,1.44039 0.05391,2.88504 -0.03714,4.32018c-0.07712,1.21543 0.3132,1.80023 1.58053,1.60547c3.42896,-0.5269 6.84805,-1.13214 10.28896,-1.56348c3.76457,-0.47194 7.54651,-0.81391 11.32628,-1.15214c1.70319,-0.15238 3.42208,-0.25661 5.12933,-0.21165c4.41886,0.11641 8.83551,0.31988 13.25241,0.50408c3.14781,0.13125 6.31746,0.10108 9.4355,0.48389c3.30302,0.4055 6.50565,0.39877 9.63781,-0.76371c0.46454,-0.1724 1.08412,-0.65302 1.14683,-1.06491c0.42173,-2.77 0.72012,-5.5591 1.04297,-8.3438c0.23663,-2.04093 3.18473,-3.72982 5.25004,-3.03897c1.979,0.66198 3.95461,1.36119 5.97718,1.85962c3.16897,0.78094 5.25247,2.64066 6.91161,5.46308c1.99824,3.39928 3.0877,6.75276 2.22024,10.71672c-1.01988,4.66063 -3.51202,6.43061 -8.24419,5.64076c-1.73846,-0.2902 -3.51074,-0.38043 -5.26884,-0.549c-0.91532,-0.08776 -1.48311,0.23218 -1.5365,1.25942c-0.0371,0.7132 -0.23739,1.41701 -0.28975,2.13052c-0.19543,2.66416 -1.4494,3.91204 -4.1428,3.91807c-8.86467,0.01982 -17.72947,0.00101 -26.5942,0.00301c-4.87559,0.00107 -9.75174,0.0622 -14.62661,0.00647c-3.86956,-0.04423 -7.7376,-0.2249 -11.76466,-0.34752z" fill="#9e7c1a"/><path d="M211.69211,152.91418c-1.0267,2.3826 -3.13183,2.88074 -5.30886,2.58157c-4.26084,-0.58552 -8.49264,-1.40402 -12.7167,-2.22742c-2.55064,-0.49719 -4.281,-2.28849 -4.91884,-4.6178c-0.69957,-2.55482 -0.8533,-5.28386 -0.99849,-7.95039c-0.04251,-0.78089 0.75517,-1.60751 1.38565,-2.54121c1.6013,-0.13268 2.98492,-0.15392 4.36813,-0.13821c2.34142,0.02659 3.93037,-1.07842 4.87887,-3.17901c0.23502,-0.52045 0.47493,-1.03868 0.71259,-1.55792c2.82822,0.30732 5.6825,0.47127 8.47422,0.97914c1.52111,0.27674 2.93604,1.13698 4.55849,1.88961c0.37327,0.96885 0.8898,1.84235 0.74249,2.58399c-0.40652,2.04653 -1.19134,4.01653 -1.62475,6.0596c-0.23627,1.11378 -0.13363,2.31924 -0.05656,3.47487c0.1035,1.55202 0.33004,3.09583 0.50376,4.64317z" fill="#fffefe"/><path d="M279.77245,141.56778c-0.17634,4.16631 2.91108,5.48011 6.69373,6.08932c0.88023,0.14176 1.80061,0.03423 2.85161,0.06458c1.19495,5.12965 -1.41219,8.82404 -4.7136,12.14087c-1.96385,1.97304 -4.57748,1.77233 -7.10459,1.41908c-2.08411,-0.29135 -4.15667,-0.66458 -6.23744,-0.98114c-1.80106,-0.274 -3.4305,-0.84273 -4.61542,-2.66257c-0.32414,-0.79202 -0.68214,-1.3659 -0.71132,-1.95604c-0.09743,-1.97046 -0.05024,-3.94755 -0.10965,-5.92057c-0.05638,-1.87305 0.07598,-3.64151 1.8154,-4.84164c0.18932,-0.13063 0.23729,-0.46076 0.36088,-0.69299c0.52972,-0.99556 1.06324,-1.98912 1.59534,-2.9834c3.34118,0.10466 6.68234,0.20932 10.17507,0.32451z" fill="#fffefe"/><path d="M225.29329,127.72205c-0.06203,-1.38555 -0.25783,-2.80505 0.1391,-4.03292c0.87454,-2.70527 -0.18608,-5.2415 -0.37983,-7.83622c-0.24304,-3.25501 0.96409,-5.55421 4.01219,-6.77254c2.83658,-1.1338 9.35736,0.13894 11.43627,2.1126c1.93027,1.83257 1.9414,3.99853 1.36786,6.31912c-0.12889,0.52161 -0.35938,1.02273 -0.58209,1.51567c-0.82161,1.81852 -1.43917,3.60067 -1.03282,5.71664c0.21791,1.13473 -0.32238,2.41503 -0.58787,3.75304c-2.04711,1.19312 -4.10237,0.8742 -6.19663,0.55465c-1.70568,-0.26025 -3.45296,-0.24095 -5.16411,-0.47498c-0.97726,-0.13364 -1.91914,-0.52613 -3.01206,-0.85505z" fill="#65350a"/><path d="M199.60358,133.28305c-0.23234,0.65563 -0.46875,1.16626 -0.70032,1.67907c-0.93459,2.06979 -2.50025,3.15859 -4.80734,3.1324c-1.36293,-0.01548 -2.72626,0.00545 -4.24887,0.03281c-1.86495,-0.14628 -3.57041,-0.31535 -5.4161,-0.52508c-2.65845,-1.49824 -2.42336,-3.81551 -2.09587,-6.18987c0.18296,-1.32656 0.26423,-2.66713 0.34278,-4.12544c0.46586,-1.98395 2.40929,-2.08579 3.55921,-3.11638c1.30052,-1.16556 2.55269,-1.20263 4.0216,-0.85336c1.48414,0.35291 2.97805,0.6756 4.44147,1.10157c1.31978,0.38414 2.60411,0.89006 4.01934,1.36835c1.33413,2.36719 1.86577,4.78024 0.8841,7.49593z" fill="#66360b"/><path d="M269.36235,141.45317c-0.3902,0.99568 -0.90841,1.96076 -1.42296,2.9278c-0.12005,0.22558 -0.16665,0.54626 -0.35054,0.67314c-1.68957,1.16574 -1.81814,2.88352 -1.76337,4.70291c0.05771,1.91648 0.01187,3.83692 0.10651,5.75091c0.02835,0.57323 0.37609,1.13066 0.61329,1.82273c-3.65417,-0.32461 -7.3421,-0.79396 -11.03485,-1.22171c-1.99883,-0.23153 -2.75953,-1.96371 -2.30684,-3.88608c0.95549,-4.05766 3.48206,-7.63956 3.47934,-11.98172c-0.00099,-1.57557 1.45211,-2.74785 2.93832,-2.43749c2.20572,0.46061 4.41368,0.98488 6.54154,1.71327c1.11158,0.3805 2.05404,1.25497 3.19957,1.93623z" fill="#502105"/><path d="M211.39817,152.39359c-0.33521,-1.49492 -0.55252,-2.97593 -0.65181,-4.46483c-0.07394,-1.10862 -0.1724,-2.26506 0.05426,-3.33354c0.41578,-1.95997 1.16868,-3.84985 1.55866,-5.81314c0.14131,-0.71147 -0.35421,-1.54944 -0.59867,-2.43747c2.26375,0.0998 4.59868,0.13752 6.86211,0.55906c2.67989,0.49911 3.91168,2.16196 4.11462,4.87902c0.04083,0.5466 0.10621,1.09965 0.2396,1.62977c1.07017,4.25324 -3.17694,9.68429 -7.43689,9.00932c-1.29291,-0.20486 -2.64717,-0.02262 -4.14188,-0.02819z" fill="#502105"/><path d="M261.04041,109.43194c-0.52508,-1.16383 -0.8385,-2.29502 -1.45337,-3.22745c-1.16381,-1.76496 -0.67085,-4.05738 1.47621,-4.44709c3.13851,-0.56965 6.41662,-0.97066 9.56788,-0.68923c2.78392,0.24863 5.49853,1.4618 8.20048,2.37687c1.99901,0.67699 2.86378,2.50275 1.80629,4.30878c-1.1746,2.00607 -2.6254,3.9133 -4.25069,5.57531c-1.69335,1.73162 -3.94079,1.62332 -6.11163,0.81414c-2.32918,-0.86821 -4.67231,-1.71531 -6.9359,-2.7347c-0.84767,-0.38174 -1.48854,-1.22268 -2.29927,-1.97663z" fill="#65350a"/><path d="M300.96281,135.97994c-1.05255,-0.22451 -1.99788,-0.32797 -2.82999,-0.691c-1.86048,-0.81169 -3.16332,-2.29295 -2.70349,-4.33947c0.47074,-2.09504 1.51308,-4.06379 2.33715,-6.07475c0.10945,-0.26707 0.41693,-0.44857 0.61528,-0.68434c0.91595,-1.0889 1.65168,-2.81625 2.77879,-3.12608c1.6705,-0.45923 3.69139,-0.19721 5.43034,0.26127c3.59548,0.94798 4.45565,3.25501 2.80721,6.62265c-0.8132,1.66135 -1.6162,3.33014 -2.34844,5.02809c-1.22069,2.83058 -2.39949,3.45425 -6.08685,3.00364z" fill="#65350a"/><path d="M217.35404,109.50037c-2.57468,1.81743 -5.16124,1.75773 -7.84802,0.66277c-1.36365,-0.55573 -4.1358,-3.99372 -3.84847,-5.38708c0.20892,-1.01313 1.00851,-2.30762 1.8904,-2.70018c2.28154,-1.0156 4.72906,-1.69844 7.15786,-2.33189c2.47835,-0.64637 4.71144,0.10773 5.60307,1.64728c1.01378,1.7505 0.44662,4.75193 -1.22154,6.43085c-0.53427,0.53773 -1.08194,1.06218 -1.73331,1.67826z" fill="#65350a"/><path d="M291.21152,127.84226c2.01525,3.00366 3.88007,5.95128 3.8312,9.60571c-0.04482,3.34966 -2.48158,4.96001 -5.55435,3.76997c-1.85528,-0.71852 -4.51042,-0.45839 -4.92758,-3.07923c-0.30957,-1.94502 -0.09681,-4.01974 0.16665,-5.99896c0.43707,-3.28303 3.43806,-5.25707 6.48408,-4.29748z" fill="#65350a"/><path d="M236.71511,96.52086c2.63717,-0.14794 5.20559,-0.18043 7.92957,-0.17501c2.37219,1.98662 1.87678,4.51346 1.45577,6.9119c-0.33642,1.91668 -1.8909,3.00406 -3.82593,3.05899c-1.20424,0.03419 -2.41423,0.06502 -3.61482,-0.01073c-2.99417,-0.18895 -4.83935,-3.58155 -3.47806,-6.24458c0.56386,-1.10304 0.98087,-2.28117 1.53347,-3.54057z" fill="#66360b"/></g></g></svg>